<svg width="512" height="190" viewBox="0 0 512 190" fill="none" xmlns="http://www.w3.org/2000/svg">
<path d="M388.736 0.858154H340.722H57.6969C54.6105 0.858154 51.5048 1.12787 48.4569 1.59025C29.6104 4.63424 13.4645 17.0028 5.36267 34.2649C1.83257 41.8749 0 50.1399 0 58.4819V131.46C0 163.037 25.7717 189.142 57.4462 189.142H255.865V73.8367H74.3444V116.163H208.045V146.834H66.2039C56.1344 146.834 47.8782 138.57 47.8782 128.532V61.4874C47.8782 51.3921 56.1537 43.1849 66.2039 43.1849H340.742H388.755H469.619C492.999 43.1849 512 24.2275 512 0.858154H388.755H388.736Z" fill="currentColor"/>
<path d="M324.75 73.8364H282.543V116.491H415.259C438.658 116.491 457.621 97.3984 457.621 73.8364H324.75Z" fill="currentColor"/>
</svg>
