<svg width="65" viewBox="0 0 511 190" fill="none" xmlns="http://www.w3.org/2000/svg">
<path d="M387.624 0.794205H339.757H57.5351C54.4511 0.794205 51.3672 1.05662 48.3309 1.53373C29.5296 4.57532 13.4193 16.9325 5.33439 34.204C1.8218 41.8139 0 50.0799 0 58.4293V131.427C0 163.012 25.7074 189.11 57.2732 189.11H255.121V73.7923H74.1217V116.112H207.434V146.779H66.0011C55.9753 146.779 47.7117 138.513 47.7117 128.469V61.4351C47.7117 51.3442 55.9634 43.126 66.0011 43.126H339.757H387.624H468.27C491.585 43.126 510.517 24.1608 510.517 0.794205L387.624 0.794205Z" fill="currentColor"/>
<path d="M323.814 73.7804H281.722V116.434H414.058C437.396 116.434 456.304 97.3378 456.304 73.7804H323.814Z" fill="currentColor"/>
</svg>