<svg width="47" height="14" viewBox="0 0 47 14" fill="none" xmlns="http://www.w3.org/2000/svg">
<path d="M5.65404 14L0.894043 11.2V5.6H9.01404L9.02886 2.9623L7.00397 4.28663L5.65404 2.38478L4.30412 4.28663L2.27923 2.9623V4.26174H0.894043V0.418208L3.94145 2.40967L5.65404 0L7.3616 2.40967L10.414 0.418208V7H2.27923V10.49L5.65404 12.32L9.02886 10.64V9.8H5.65404V8.4H10.414V11.2L5.65404 14Z" fill="#008DDF"/>
<path d="M44.6241 10.0087C44.1328 10.0087 43.7038 9.93902 43.3371 9.79968C42.9705 9.66035 42.6845 9.46602 42.4791 9.21668C42.2811 8.96735 42.1821 8.68502 42.1821 8.36968V8.25968C42.1821 8.22302 42.1931 8.19368 42.2151 8.17168C42.2445 8.14235 42.2775 8.12768 42.3141 8.12768H43.5351C43.5718 8.12768 43.6011 8.14235 43.6231 8.17168C43.6525 8.19368 43.6671 8.22302 43.6671 8.25968V8.27068C43.6671 8.43202 43.7551 8.57135 43.9311 8.68868C44.1145 8.79868 44.3418 8.85368 44.6131 8.85368C44.8625 8.85368 45.0641 8.80602 45.2181 8.71068C45.3721 8.60802 45.4491 8.48335 45.4491 8.33668C45.4491 8.20468 45.3831 8.10568 45.2511 8.03968C45.1191 7.97368 44.9028 7.90402 44.6021 7.83068C44.2575 7.74268 43.9861 7.65835 43.7881 7.57768C43.3188 7.41635 42.9448 7.21835 42.6661 6.98368C42.3875 6.74902 42.2481 6.41168 42.2481 5.97168C42.2481 5.42902 42.4571 5.00002 42.8751 4.68468C43.3005 4.36202 43.8615 4.20068 44.5581 4.20068C45.0275 4.20068 45.4381 4.27768 45.7901 4.43168C46.1421 4.57835 46.4135 4.78735 46.6041 5.05868C46.8021 5.33002 46.9011 5.63802 46.9011 5.98268C46.9011 6.01935 46.8865 6.05235 46.8571 6.08168C46.8351 6.10368 46.8058 6.11468 46.7691 6.11468H45.5921C45.5555 6.11468 45.5225 6.10368 45.4931 6.08168C45.4711 6.05235 45.4601 6.01935 45.4601 5.98268C45.4601 5.82135 45.3758 5.68568 45.2071 5.57568C45.0458 5.46568 44.8295 5.41068 44.5581 5.41068C44.3161 5.41068 44.1181 5.45468 43.9641 5.54268C43.8101 5.63068 43.7331 5.75168 43.7331 5.90568C43.7331 6.05235 43.8065 6.16235 43.9531 6.23568C44.1071 6.30902 44.3601 6.38602 44.7121 6.46668C44.7928 6.48868 44.8845 6.51435 44.9871 6.54368C45.0898 6.56568 45.1998 6.59502 45.3171 6.63168C45.8378 6.78568 46.2485 6.98368 46.5491 7.22568C46.8498 7.46768 47.0001 7.81968 47.0001 8.28168C47.0001 8.82435 46.7838 9.24968 46.3511 9.55768C45.9258 9.85835 45.3501 10.0087 44.6241 10.0087Z" fill="#008DDF"/>
<path d="M40.4015 3.63961C40.1521 3.63961 39.9431 3.55894 39.7745 3.39761C39.6131 3.22894 39.5325 3.01994 39.5325 2.77061C39.5325 2.51394 39.6131 2.30494 39.7745 2.14361C39.9358 1.98228 40.1448 1.90161 40.4015 1.90161C40.6581 1.90161 40.8671 1.98228 41.0285 2.14361C41.1898 2.30494 41.2705 2.51394 41.2705 2.77061C41.2705 3.01994 41.1861 3.22894 41.0175 3.39761C40.8561 3.55894 40.6508 3.63961 40.4015 3.63961ZM39.7415 9.93161C39.7048 9.93161 39.6718 9.92061 39.6425 9.89861C39.6205 9.86928 39.6095 9.83628 39.6095 9.79961V4.39861C39.6095 4.36194 39.6205 4.33261 39.6425 4.31061C39.6718 4.28128 39.7048 4.26661 39.7415 4.26661H41.0285C41.0651 4.26661 41.0945 4.28128 41.1165 4.31061C41.1458 4.33261 41.1605 4.36194 41.1605 4.39861V9.79961C41.1605 9.83628 41.1458 9.86928 41.1165 9.89861C41.0945 9.92061 41.0651 9.93161 41.0285 9.93161H39.7415Z" fill="#008DDF"/>
<path d="M38.5655 6.52171C38.6095 6.80038 38.6241 7.11204 38.6095 7.45671C38.6021 7.54471 38.5545 7.58871 38.4665 7.58871H35.0675C35.0235 7.58871 35.0088 7.60704 35.0235 7.64371C35.0455 7.79038 35.0858 7.93704 35.1445 8.08371C35.3351 8.49438 35.7238 8.69971 36.3105 8.69971C36.7798 8.69238 37.1501 8.50171 37.4215 8.12771C37.4508 8.08371 37.4838 8.06171 37.5205 8.06171C37.5425 8.06171 37.5681 8.07638 37.5975 8.10571L38.3895 8.88671C38.4261 8.92338 38.4445 8.95638 38.4445 8.98571C38.4445 9.00038 38.4298 9.02971 38.4005 9.07371C38.1585 9.37438 37.8468 9.60904 37.4655 9.77771C37.0841 9.93904 36.6661 10.0197 36.2115 10.0197C35.5808 10.0197 35.0455 9.87671 34.6055 9.59071C34.1728 9.30471 33.8611 8.90504 33.6705 8.39171C33.5165 8.02504 33.4395 7.54471 33.4395 6.95071C33.4395 6.54738 33.4945 6.19171 33.6045 5.88371C33.7731 5.36304 34.0665 4.94871 34.4845 4.64071C34.9098 4.33271 35.4121 4.17871 35.9915 4.17871C36.7248 4.17871 37.3115 4.39138 37.7515 4.81671C38.1988 5.24204 38.4701 5.81038 38.5655 6.52171ZM36.0025 5.52071C35.5405 5.52071 35.2361 5.73704 35.0895 6.16971C35.0601 6.26504 35.0345 6.38238 35.0125 6.52171C35.0125 6.55838 35.0308 6.57671 35.0675 6.57671H36.9705C37.0145 6.57671 37.0291 6.55838 37.0145 6.52171C36.9778 6.30904 36.9595 6.20638 36.9595 6.21371C36.8935 5.99371 36.7761 5.82504 36.6075 5.70771C36.4461 5.58304 36.2445 5.52071 36.0025 5.52071Z" fill="#008DDF"/>
<path d="M32.3053 4.20068C32.5693 4.20068 32.7783 4.25202 32.9323 4.35468C32.9909 4.38402 33.0129 4.43902 32.9983 4.51968L32.7673 5.77368C32.7599 5.86168 32.7086 5.88735 32.6133 5.85068C32.5033 5.81402 32.3749 5.79568 32.2283 5.79568C32.1696 5.79568 32.0889 5.80302 31.9863 5.81768C31.7223 5.83968 31.4986 5.93868 31.3153 6.11468C31.1319 6.28335 31.0403 6.51068 31.0403 6.79668V9.79968C31.0403 9.83635 31.0256 9.86935 30.9963 9.89868C30.9743 9.92068 30.9449 9.93168 30.9083 9.93168H29.6213C29.5846 9.93168 29.5516 9.92068 29.5223 9.89868C29.5003 9.86935 29.4893 9.83635 29.4893 9.79968V4.40968C29.4893 4.37302 29.5003 4.34368 29.5223 4.32168C29.5516 4.29235 29.5846 4.27768 29.6213 4.27768H30.9083C30.9449 4.27768 30.9743 4.29235 30.9963 4.32168C31.0256 4.34368 31.0403 4.37302 31.0403 4.40968V4.82768C31.0403 4.84968 31.0476 4.86435 31.0623 4.87168C31.0769 4.87902 31.0879 4.87535 31.0953 4.86068C31.3959 4.42068 31.7993 4.20068 32.3053 4.20068Z" fill="#008DDF"/>
<path d="M27.5216 3.63961C27.2723 3.63961 27.0633 3.55894 26.8946 3.39761C26.7333 3.22894 26.6526 3.01994 26.6526 2.77061C26.6526 2.51394 26.7333 2.30494 26.8946 2.14361C27.0559 1.98228 27.2649 1.90161 27.5216 1.90161C27.7783 1.90161 27.9873 1.98228 28.1486 2.14361C28.3099 2.30494 28.3906 2.51394 28.3906 2.77061C28.3906 3.01994 28.3063 3.22894 28.1376 3.39761C27.9763 3.55894 27.7709 3.63961 27.5216 3.63961ZM26.8616 9.93161C26.8249 9.93161 26.7919 9.92061 26.7626 9.89861C26.7406 9.86928 26.7296 9.83628 26.7296 9.79961V4.39861C26.7296 4.36194 26.7406 4.33261 26.7626 4.31061C26.7919 4.28128 26.8249 4.26661 26.8616 4.26661H28.1486C28.1853 4.26661 28.2146 4.28128 28.2366 4.31061C28.2659 4.33261 28.2806 4.36194 28.2806 4.39861V9.79961C28.2806 9.83628 28.2659 9.86928 28.2366 9.89861C28.2146 9.92061 28.1853 9.93161 28.1486 9.93161H26.8616Z" fill="#008DDF"/>
<path d="M23.9915 4.40959C23.9915 4.37292 24.0025 4.34359 24.0245 4.32159C24.0538 4.29225 24.0868 4.27759 24.1235 4.27759H25.4105C25.4471 4.27759 25.4765 4.29225 25.4985 4.32159C25.5278 4.34359 25.5425 4.37292 25.5425 4.40959V9.79959C25.5425 9.83625 25.5278 9.86925 25.4985 9.89859C25.4765 9.92059 25.4471 9.93159 25.4105 9.93159H24.1235C24.0868 9.93159 24.0538 9.92059 24.0245 9.89859C24.0025 9.86925 23.9915 9.83625 23.9915 9.79959V9.42559C23.9915 9.40359 23.9841 9.39259 23.9695 9.39259C23.9548 9.38525 23.9401 9.39259 23.9255 9.41459C23.6321 9.81059 23.1775 10.0086 22.5615 10.0086C22.0041 10.0086 21.5458 9.83992 21.1865 9.50259C20.8271 9.16525 20.6475 8.69225 20.6475 8.08359V4.40959C20.6475 4.37292 20.6585 4.34359 20.6805 4.32159C20.7098 4.29225 20.7428 4.27759 20.7795 4.27759H22.0555C22.0921 4.27759 22.1215 4.29225 22.1435 4.32159C22.1728 4.34359 22.1875 4.37292 22.1875 4.40959V7.69859C22.1875 7.99192 22.2645 8.23025 22.4185 8.41359C22.5798 8.59692 22.7998 8.68859 23.0785 8.68859C23.3278 8.68859 23.5331 8.61525 23.6945 8.46859C23.8558 8.31459 23.9548 8.11659 23.9915 7.87459V4.40959Z" fill="#008DDF"/>
<path d="M18.0331 4.4097C18.0331 4.37303 18.0441 4.3437 18.0661 4.3217C18.0954 4.29236 18.1284 4.2777 18.1651 4.2777H19.4521C19.4887 4.2777 19.5181 4.29236 19.5401 4.3217C19.5694 4.3437 19.5841 4.37303 19.5841 4.4097V9.4257C19.5841 10.3864 19.3054 11.072 18.7481 11.4827C18.1981 11.8934 17.4867 12.0987 16.6141 12.0987C16.3574 12.0987 16.0714 12.0804 15.7561 12.0437C15.6827 12.0364 15.6461 11.9887 15.6461 11.9007L15.6901 10.7677C15.6901 10.6724 15.7414 10.632 15.8441 10.6467C16.1081 10.6907 16.3501 10.7127 16.5701 10.7127C17.0394 10.7127 17.3987 10.61 17.6481 10.4047C17.9047 10.1994 18.0331 9.86936 18.0331 9.4147C18.0331 9.3927 18.0257 9.3817 18.0111 9.3817C17.9964 9.37436 17.9817 9.37803 17.9671 9.3927C17.6884 9.69336 17.2814 9.8437 16.7461 9.8437C16.2694 9.8437 15.8294 9.73003 15.4261 9.5027C15.0301 9.26803 14.7477 8.89403 14.5791 8.3807C14.4691 8.04336 14.4141 7.60703 14.4141 7.0717C14.4141 6.4997 14.4801 6.03403 14.6121 5.6747C14.7661 5.22736 15.0264 4.86803 15.3931 4.5967C15.7597 4.32536 16.1851 4.1897 16.6691 4.1897C17.2337 4.1897 17.6664 4.35836 17.9671 4.6957C17.9817 4.71036 17.9964 4.7177 18.0111 4.7177C18.0257 4.71036 18.0331 4.6957 18.0331 4.6737V4.4097ZM17.9451 7.9627C18.0037 7.7427 18.0331 7.44203 18.0331 7.0607C18.0331 6.83336 18.0257 6.65736 18.0111 6.5327C17.9964 6.40803 17.9707 6.2907 17.9341 6.1807C17.8681 5.9827 17.7581 5.82503 17.6041 5.7077C17.4501 5.58303 17.2594 5.5207 17.0321 5.5207C16.8121 5.5207 16.6251 5.58303 16.4711 5.7077C16.3171 5.82503 16.2034 5.9827 16.1301 6.1807C16.0274 6.4007 15.9761 6.6977 15.9761 7.0717C15.9761 7.48236 16.0201 7.7757 16.1081 7.9517C16.1741 8.1497 16.2877 8.31103 16.4491 8.4357C16.6177 8.55303 16.8157 8.6117 17.0431 8.6117C17.2777 8.6117 17.4721 8.55303 17.6261 8.4357C17.7801 8.31103 17.8864 8.15336 17.9451 7.9627Z" fill="#008DDF"/>
</svg>
