<svg width="68" height="12" viewBox="0 0 68 12" fill="none" xmlns="http://www.w3.org/2000/svg">
<path d="M29.9353 2.94043H24.2183V9.05742H25.7002V4.16806H29.8523C30.0949 4.16806 30.2917 4.36367 30.2917 4.60476V9.05636H31.7736V4.76865C31.7736 3.75885 30.9502 2.94043 29.9342 2.94043H29.9353Z" fill="#008DDF"/>
<path d="M11.9714 7.83516H7.83631C7.59376 7.83516 7.39695 7.63954 7.39695 7.39846V2.9458H5.91504V7.23562C5.91504 8.24543 6.73844 9.06384 7.7544 9.06384H11.9714V9.80084C11.9714 10.0652 11.7555 10.2788 11.4906 10.2788H7.84802C7.59908 10.2788 7.39695 10.0779 7.39695 9.83045V9.67184H5.91504C5.91504 10.6816 6.73844 11.5001 7.7544 11.5001H11.614C12.6299 11.5001 13.4533 10.6816 13.4533 9.70145V2.94686H11.9714V7.8341V7.83516Z" fill="#008DDF"/>
<path d="M20.7744 2.9458H16.8967C15.8808 2.9458 15.0574 3.76422 15.0574 4.77402V7.22822C15.0574 8.23802 15.8808 9.05644 16.8967 9.05644H20.7744C21.7903 9.05644 22.6137 8.23802 22.6137 7.22822V4.77402C22.6137 3.76422 21.7903 2.9458 20.7744 2.9458ZM21.1318 7.39846C21.1318 7.63954 20.935 7.83516 20.6925 7.83516H16.9797C16.7372 7.83516 16.5404 7.63954 16.5404 7.39846V4.6133C16.5404 4.37222 16.7372 4.1766 16.9797 4.1766H20.6925C20.935 4.1766 21.1318 4.37222 21.1318 4.6133V7.39846Z" fill="#008DDF"/>
<path d="M42.282 2.95216H38.0469C37.0309 2.95216 36.2075 3.77058 36.2075 4.78039V7.22824C36.2075 8.23804 37.0309 9.05646 38.0469 9.05646H43.7639V0.502197H42.282V2.95216ZM42.282 6.39184V7.83518H38.1299C37.8873 7.83518 37.6905 7.63956 37.6905 7.39848V4.6112C37.6905 4.37012 37.8873 4.1745 38.1299 4.1745H42.282V6.39184Z" fill="#008DDF"/>
<path d="M34.6031 7.83301H33.3787V9.05006H34.6031V7.83301Z" fill="#008DDF"/>
<path d="M51.0852 2.94564H47.2075C46.1916 2.94564 45.3682 3.76405 45.3682 4.77386V7.22806C45.3682 8.23786 46.1916 9.05628 47.2075 9.05628H51.0852C52.1011 9.05628 52.9245 8.23786 52.9245 7.22806H51.4426V7.37398C51.4426 7.62775 51.2362 7.83288 50.9809 7.83288H47.3128C47.0575 7.83288 46.8501 7.62669 46.8501 7.37292V6.60843L52.9245 6.61794V4.7728C52.9245 3.763 52.1011 2.94458 51.0852 2.94458V2.94564ZM51.4426 5.38714H46.8501V4.61208C46.8501 4.371 47.0469 4.17538 47.2894 4.17538H51.0022C51.2448 4.17538 51.4416 4.371 51.4416 4.61208V5.38714H51.4426Z" fill="#008DDF"/>
<path d="M60.6033 5.98782C60.6033 6.14431 60.5192 6.28812 60.3831 6.36636C59.2235 7.03252 58.3075 7.55804 58.3075 7.55804L56.2309 6.36636C56.0948 6.28812 56.0107 6.14431 56.0107 5.98782V2.94043H54.5288V6.01954C54.5288 6.55564 54.8171 7.05155 55.2841 7.32013L58.3065 9.05424C58.3065 9.05424 59.7628 8.21891 61.3288 7.32013C61.7958 7.05155 62.0841 6.55564 62.0841 6.01954V2.94043H60.6022V5.98782H60.6033Z" fill="#008DDF"/>
<path d="M2.89574 1.81327C2.89574 1.08791 2.30425 0.5 1.57553 0.5H0V1.72234H1.41383V7.74099C1.41383 8.46636 2.00638 9.05426 2.73617 9.05426H4.31063V7.83087H2.89681V1.81327H2.89574Z" fill="#008DDF"/>
<path d="M68.0001 7.83301H63.6895V9.05006H68.0001V7.83301Z" fill="#008DDF"/>
</svg>
