<svg width="26" height="26" fill="none" xmlns="http://www.w3.org/2000/svg"><g clip-path="url(#prefix__clip0_126_1118)"><path d="M25.11 12.61C25.11 5.92 19.69.5 13 .5 6.31.5.89 5.92.89 12.61c0 6.044 4.429 11.054 10.218 11.963V16.11H8.032v-3.5h3.076V9.942c0-3.035 1.807-4.711 4.574-4.711 1.325 0 2.71.236 2.71.236v2.979h-1.527c-1.504 0-1.973.933-1.973 1.89v2.274h3.358l-.537 3.5h-2.82v8.463c5.788-.91 10.216-5.92 10.216-11.963z" fill="#191C1F"/></g><defs><clipPath id="prefix__clip0_126_1118"><path fill="#191C1F" transform="translate(.5 .11)" d="M0 0h25v25H0z"/></clipPath></defs></svg>