<svg width="26" height="26" fill="none" xmlns="http://www.w3.org/2000/svg"><path d="M13.005 6.995a5.601 5.601 0 00-5.61 5.61 5.601 5.601 0 005.61 5.61 5.601 5.601 0 005.61-5.61 5.601 5.601 0 00-5.61-5.61zm0 9.258a3.654 3.654 0 01-3.648-3.648 3.651 3.651 0 013.648-3.647 3.65 3.65 0 013.647 3.647 3.654 3.654 0 01-3.647 3.648zm7.148-9.488c0 .728-.586 1.309-1.308 1.309a1.309 1.309 0 111.309-1.309zm3.716 1.329c-.083-1.753-.483-3.306-1.767-4.585-1.28-1.28-2.832-1.68-4.585-1.768-1.807-.103-7.222-.103-9.029 0-1.748.083-3.3.483-4.585 1.763-1.284 1.279-1.68 2.832-1.767 4.585-.103 1.806-.103 7.221 0 9.028.083 1.753.483 3.306 1.767 4.585 1.284 1.28 2.832 1.68 4.585 1.767 1.807.103 7.222.103 9.029 0 1.753-.082 3.305-.483 4.585-1.767 1.279-1.28 1.68-2.832 1.767-4.585.103-1.807.103-7.217 0-9.023zm-2.334 10.961a3.693 3.693 0 01-2.08 2.08c-1.44.572-4.858.44-6.45.44-1.592 0-5.015.127-6.45-.44a3.693 3.693 0 01-2.08-2.08c-.572-1.44-.44-4.858-.44-6.45 0-1.592-.127-5.014.44-6.45a3.693 3.693 0 012.08-2.08c1.44-.571 4.858-.44 6.45-.44 1.592 0 5.014-.126 6.45.44a3.693 3.693 0 012.08 2.08c.571 1.44.44 4.858.44 6.45 0 1.592.131 5.015-.44 6.45z" fill="#191C1F"/></svg>